#!OML:ASF G:\JayActor3\Patient Classification 1\Patient 1\Session 6\male.ASF
:FULLY-SPECIFIED
:DEGREES
2682
root -32.5953 15.829 -4.03761 558.111 -28.6188 -542.31
lowerback 33.2024 4.12549 2.20539
upperback 15.3822 2.25623 4.67397
thorax -0.251563 -0.432884 3.05508
lowerneck -2.11728 -5.98408 0.297437
upperneck -13.9882 -7.79682 7.888
head -3.89195 -4.51489 2.80739
rclavicle -6.99722e-014 3.18055e-014
rhumerus -17.2673 9.47722 -69.1228
rradius 57.8671
rwrist -5.42959
rhand -26.025 -3.96658
rfingers 7.12502
rthumb 0.521563 -33.9457
lclavicle -6.99722e-014 3.18055e-014
lhumerus -10.7651 -13.7938 72.4219
lradius 55.1657
lwrist 30.0784
lhand -28.3116 -0.463057
lfingers 7.12502
lthumb -1.68686 29.51
rfemur -45.3116 -5.91899 25.7958
rtibia 63.2992
rfoot -27.7022 -20.275
rtoes -13.3164
lfemur -57.0526 13.7194 -29.8106
ltibia 50.653
lfoot -14.6852 11.4745
ltoes -20.5366
2683
root -32.6357 15.8096 -4.09681 557.783 -28.3577 -541.973
lowerback 33.223 4.2412 2.12068
upperback 15.4001 2.36097 4.64755
thorax -0.248158 -0.391938 3.0413
lowerneck -2.11783 -5.96719 0.291165
upperneck -13.9756 -7.77738 7.88706
head -3.88796 -4.50539 2.80723
rclavicle -4.92986e-014 5.80451e-014
rhumerus -17.3579 9.58278 -69.2089
rradius 57.8755
rwrist -5.43491
rhand -26.0367 -3.92889
rfingers 7.12502
rthumb 0.510317 -33.908
lclavicle -4.92986e-014 5.80451e-014
lhumerus -10.8746 -13.7321 72.353
lradius 55.1339
lwrist 30.0708
lhand -28.2735 -0.403369
lfingers 7.12502
lthumb -1.65002 29.57
rfemur -45.052 -6.22563 26.1653
rtibia 63.5645
rfoot -27.729 -19.9606
rtoes -13.3
lfemur -56.9326 13.6597 -29.6946
ltibia 49.6075
lfoot -14.5091 11.3686
ltoes -20.2439
2684
root -32.6784 15.7875 -4.15706 557.432 -28.0688 -541.602
lowerback 33.2174 4.35841 2.03784
upperback 15.4128 2.46988 4.62035
thorax -0.240943 -0.348036 3.02464
lowerneck -2.14009 -5.94247 0.289048
upperneck -13.9354 -7.74993 7.87341
head -3.87095 -4.49019 2.79935
rclavicle -3.33958e-014 -1.90833e-014
rhumerus -17.4616 9.69755 -69.3014
rradius 57.8542
rwrist -5.42781
rhand -26.0522 -3.8609
rfingers 7.12502
rthumb 0.495287 -33.8401
lclavicle -3.33958e-014 -1.90833e-014
lhumerus -10.9724 -13.6678 72.277
lradius 55.0817
lwrist 30.0528
lhand -28.2439 -0.339378
lfingers 7.12502
lthumb -1.62147 29.6342
rfemur -44.7767 -6.53528 26.555
rtibia 63.8382
rfoot -27.7611 -19.6695
rtoes -13.4282
lfemur -56.718 13.5777 -29.4462
ltibia 48.6137
lfoot -14.2454 11.3059
ltoes -20.2091
2685
root -32.7234 15.7637 -4.21805 557.066 -27.7539 -541.212
lowerback 33.1831 4.47321 1.95357
upperback 15.4198 2.57772 4.58892
thorax -0.229447 -0.303481 3.00488
lowerneck -2.18488 -5.90818 0.296304
upperneck -13.8696 -7.7134 7.83434
head -3.84219 -4.46858 2.77866
rclavicle 2.38542e-014 -1.98785e-014
rhumerus -17.5731 9.8253 -69.3968
rradius 57.805
rwrist -5.42002
rhand -26.0584 -3.78024
rfingers 7.12502
rthumb 0.489339 -33.7594
lclavicle 2.38542e-014 -1.98785e-014
lhumerus -11.0556 -13.6007 72.1954
lradius 55.0075
lwrist 30.0353
lhand -28.2296 -0.276361
lfingers 7.12502
lthumb -1.60769 29.6973
rfemur -44.4854 -6.85109 26.9436
rtibia 64.1215
rfoot -27.7959 -19.3911
rtoes -13.7144
lfemur -56.4079 13.4482 -29.0528
ltibia 47.7748
lfoot -13.9013 11.1824
ltoes -20.9033
2686
root -32.7707 15.7391 -4.27948 556.676 -27.4204 -540.805
lowerback 33.1276 4.5795 1.88034
upperback 15.4247 2.67861 4.55268
thorax -0.211316 -0.261172 2.97659
lowerneck -2.25065 -5.86677 0.299253
upperneck -13.7812 -7.66993 7.78285
head -3.80199 -4.44173 2.75223
rclavicle -4.77083e-015 7.95139e-015
rhumerus -17.6913 9.95587 -69.4958
rradius 57.7367
rwrist -5.40557
rhand -26.0391 -3.70068
rfingers 7.12502
rthumb 0.508029 -33.6798
lclavicle -4.77083e-015 7.95139e-015
lhumerus -11.1206 -13.5351 72.1061
lradius 54.9158
lwrist 30.0272
lhand -28.2195 -0.211907
lfingers 7.12502
lthumb -1.59794 29.7619
rfemur -44.1668 -7.16965 27.3213
rtibia 64.4215
rfoot -27.8258 -19.0947
rtoes -14.078
lfemur -56.013 13.2639 -28.5142
ltibia 47.217
lfoot -13.5602 11.0414
ltoes -22.3022
2687
root -32.8204 15.7138 -4.34082 556.269 -27.0793 -540.396
lowerback 33.053 4.66893 1.81827
upperback 15.4285 2.76175 4.50872
thorax -0.185266 -0.22632 2.93988
lowerneck -2.32825 -5.81755 0.293918
upperneck -13.6891 -7.61773 7.72675
head -3.75854 -4.41004 2.72489
rclavicle -9.54166e-014 -3.26007e-014
rhumerus -17.8063 10.0876 -69.598
rradius 57.6556
rwrist -5.38809
rhand -25.9899 -3.63693
rfingers 7.12502
rthumb 0.555527 -33.6159
lclavicle -9.54166e-014 -3.26007e-014
lhumerus -11.161 -13.4613 72.0051
lradius 54.8098
lwrist 30.0266
lhand -28.2396 -0.151245
lfingers 7.12502
lthumb -1.61735 29.8224
rfemur -43.8335 -7.50017 27.6718
rtibia 64.7562
rfoot -27.8324 -18.7895
rtoes -14.5824
lfemur -55.5882 13.0444 -27.8769
ltibia 47.0499
lfoot -13.2981 10.9839
ltoes -23.7852
2688
root -32.8715 15.6863 -4.40133 555.854 -26.736 -540.002
lowerback 32.9713 4.74628 1.75353
upperback 15.4317 2.82908 4.45976
thorax -0.156574 -0.199081 2.90416
lowerneck -2.40488 -5.76772 0.273227
upperneck -13.6167 -7.56494 7.67819
head -3.72146 -4.37901 2.70394
rclavicle -2.54444e-014 -1.04958e-013
rhumerus -17.9149 10.2105 -69.6942
rradius 57.5771
rwrist -5.37811
rhand -25.914 -3.61155
rfingers 7.12502
rthumb 0.628797 -33.5904
lclavicle -2.54444e-014 -1.04958e-013
lhumerus -11.1613 -13.3893 71.895
lradius 54.6944
lwrist 30.0342
lhand -28.2686 -0.0955075
lfingers 7.12502
lthumb -1.64537 29.8779
rfemur -43.5096 -7.83236 27.9798
rtibia 65.1526
rfoot -27.8084 -18.4749
rtoes -15.1643
lfemur -55.2068 12.832 -27.2095
ltibia 47.3199
lfoot -13.1722 11.0565
ltoes -24.7299
